<?xml version="1.0" encoding="utf-8"?>
<!-- Generator: Adobe Illustrator 23.0.1, SVG Export Plug-In . SVG Version: 6.00 Build 0)  -->
<svg version="1.1" id="Camada_1" xmlns="http://www.w3.org/2000/svg" xmlns:xlink="http://www.w3.org/1999/xlink" x="0px" y="0px"
	 viewBox="0 0 595.3 175.7" style="enable-background:new 0 0 595.3 175.7;" xml:space="preserve">
<style type="text/css">
	.st0{fill:#FFFFFF;}
</style>
<g>
	<rect x="7.8" y="6.2" class="st0" width="21" height="119.9"/>
	<path class="st0" d="M177.9,52.8L177.9,52.8c-6-3.4-14-6.5-21.3-6.5c-19.8,0-35.5,14.2-39,32.9c-3.8-18.8-20.4-32.9-40.2-32.9
		c-22.6,0-41.1,18.4-41.1,41.1c0,22.6,18.4,41.1,41.1,41.1c19.9,0,36.5-14.2,40.3-33.1c3.7,18.8,20.4,33.1,40.3,33.1
		c7.3,0,14.1-2.1,20-5.4v2c0,12.9-10.5,23.4-23.4,23.4c-5.2,0-10.2-1.7-14.3-4.9l-12.9,16.6c7.8,6.1,17.2,9.3,27.2,9.3
		c24.2,0,43.8-19.4,44.3-43.4h0.1V49.4h-21V52.8z M77.3,107.4c-11,0-20-9-20-20c0-11,9-20,20-20c11,0,20,9,20,20
		C97.3,98.4,88.3,107.4,77.3,107.4z M157.8,107.4c-11,0-20-9-20-20c0-11,9-20,20-20c11,0,20,9,20,20
		C177.9,98.4,168.9,107.4,157.8,107.4z"/>
	<path class="st0" d="M334.8,47.1c-7.3,0.1-12.3,2.9-16.8,5V6.2h-21v119.9h21V82.1c0-8.1,6.6-14.7,14.7-14.7
		c8.1,0,14.7,6.6,14.7,14.7v44.1h21V82.1C368.4,62.4,354.5,46.9,334.8,47.1z"/>
	<rect x="378.3" y="49.4" class="st0" width="21" height="76.7"/>
	<ellipse class="st0" cx="388.9" cy="27.8" rx="11.1" ry="11.2"/>
	<path class="st0" d="M446.7,47.1c-5.2,0-13,1.4-16.3,5v-2.7h-21v76.8h21V81.7c0-8.1,6.6-14.7,14.7-14.7c8.1,0,14.7,6.6,14.7,14.7
		v44.5h21V81.7C480.9,62,466.4,47.1,446.7,47.1z"/>
	<polygon class="st0" points="566.7,49.4 538.8,49.4 511.4,80.8 511.4,6.2 490.4,6.2 490.4,126.1 511.4,126.1 511.4,112.8 
		519.7,103.3 540.3,126.1 568.7,126.1 533.7,87.3 	"/>
	<path class="st0" d="M582,117.7c0.3-0.4,0.5-0.9,0.5-1.4c0-0.7-0.3-1.2-0.8-1.6c-0.6-0.4-1.2-0.6-2-0.6h-2.8v7.9h1.6v-3h0.5l2.4,3
		h2l-2.7-3.3C581.2,118.4,581.7,118.1,582,117.7z M579,117.6h-0.5v-2.3h0.9c0.4,0,0.8,0.1,1,0.3c0.3,0.2,0.4,0.4,0.4,0.8
		c0,0.4-0.2,0.7-0.5,0.9C580,117.5,579.6,117.6,579,117.6z"/>
	<path class="st0" d="M586.8,115.2c-0.4-1-0.9-1.8-1.6-2.5s-1.5-1.3-2.5-1.7c-1-0.4-2.1-0.6-3.3-0.6c-1.2,0-2.3,0.2-3.3,0.6
		c-1,0.4-1.8,1-2.5,1.7c-0.7,0.7-1.2,1.6-1.6,2.5c-0.4,1-0.6,2-0.6,3c0,1.1,0.2,2.1,0.6,3c0.4,1,0.9,1.8,1.6,2.5
		c0.7,0.7,1.5,1.3,2.5,1.7c1,0.4,2.1,0.6,3.3,0.6c1.2,0,2.3-0.2,3.3-0.6c1-0.4,1.8-1,2.5-1.7c0.7-0.7,1.2-1.6,1.6-2.5
		c0.4-1,0.6-2,0.6-3C587.4,117.2,587.2,116.2,586.8,115.2z M585.7,120.9c-0.3,0.8-0.8,1.6-1.4,2.2c-0.6,0.6-1.3,1.1-2.2,1.5
		c-0.8,0.4-1.8,0.5-2.8,0.5c-1,0-2-0.2-2.8-0.5c-0.8-0.4-1.6-0.9-2.2-1.5c-0.6-0.6-1.1-1.4-1.4-2.2c-0.3-0.8-0.5-1.7-0.5-2.7
		c0-0.9,0.2-1.8,0.5-2.7c0.3-0.8,0.8-1.6,1.4-2.2c0.6-0.6,1.3-1.1,2.2-1.5c0.8-0.4,1.8-0.5,2.8-0.5c1,0,2,0.2,2.8,0.5
		c0.8,0.4,1.6,0.9,2.2,1.5c0.6,0.6,1.1,1.4,1.4,2.2c0.3,0.8,0.5,1.7,0.5,2.7C586.2,119.2,586.1,120.1,585.7,120.9z"/>
	<g>
		<polygon class="st0" points="208.5,126.1 229.6,126.1 229.6,70.3 208.6,70.3 		"/>
		<ellipse class="st0" cx="219" cy="27.8" rx="11.1" ry="11.2"/>
		<path class="st0" d="M268.1,14.5l-21,9.8v24.9h-17.5v0.2v20.9h17.5v27.8c0,16.6,13.5,30.2,30.2,30.2v-21c-5,0-9.1-4.1-9.1-9.1
			V70.3h18.7v-21h-18.7V14.5z"/>
	</g>
</g>
</svg>
